<?xml version="1.0" standalone="no"?>
<!DOCTYPE svg PUBLIC "-//W3C//DTD SVG 20010904//EN"
 "http://www.w3.org/TR/2001/REC-SVG-20010904/DTD/svg10.dtd">
<svg version="1.0" xmlns="http://www.w3.org/2000/svg"
 width="225.000000pt" height="225.000000pt" viewBox="0 0 225.000000 225.000000"
 preserveAspectRatio="xMidYMid meet">
<metadata>
Created by potrace 1.15, written by Peter Selinger 2001-2017
</metadata>
<g transform="translate(0.000000,225.000000) scale(0.100000,-0.100000)"
fill="#000000" stroke="none">
<path d="M592 2141 c-109 -37 -175 -118 -211 -257 -13 -49 -26 -96 -29 -104
-3 -8 29 18 72 58 128 119 286 206 456 250 68 18 72 21 45 27 -16 4 -64 16
-107 26 -95 24 -158 24 -226 0z"/>
<path d="M961 2010 c-184 -39 -349 -129 -479 -262 -104 -106 -183 -242 -224
-385 -31 -106 -33 -362 -4 -463 72 -252 245 -464 471 -577 206 -104 467 -122
683 -49 135 46 229 104 336 205 182 175 276 395 276 648 0 227 -84 440 -239
605 -119 127 -233 199 -401 253 -74 24 -104 28 -230 31 -80 2 -165 -1 -189 -6z
m-9 -232 c57 -17 133 -88 155 -146 22 -57 22 -153 1 -203 -59 -137 -231 -200
-366 -133 -151 75 -190 274 -78 401 72 82 182 113 288 81z m675 -134 c113 -54
178 -203 139 -321 -36 -107 -129 -173 -245 -173 -108 0 -189 49 -237 143 -23
43 -29 137 -14 192 14 50 76 127 121 150 72 37 168 41 236 9z m-432 -434 c55
-52 57 -132 3 -182 -25 -23 -39 -28 -80 -28 -44 0 -54 4 -84 34 -29 29 -34 41
-34 80 0 55 22 93 65 112 40 19 101 11 130 -16z m-361 -125 c20 -9 55 -32 77
-52 205 -185 19 -515 -246 -438 -180 52 -245 292 -117 429 64 68 199 97 286
61z m661 -129 c91 -42 144 -129 145 -234 0 -75 -16 -116 -64 -170 -100 -111
-269 -115 -375 -11 -67 66 -92 165 -66 254 43 150 217 228 360 161z"/>
<path d="M1822 1832 c130 -135 219 -291 262 -464 13 -50 26 -87 29 -82 2 5 17
52 31 105 34 126 35 215 2 284 -55 119 -106 151 -345 219 l-54 16 75 -78z"/>
<path d="M97 833 c-25 -105 -27 -126 -18 -176 27 -150 127 -233 336 -281 l60
-14 -80 83 c-125 128 -209 278 -257 459 l-13 49 -28 -120z"/>
<path d="M1825 435 c-67 -67 -196 -165 -260 -198 -31 -16 -236 -83 -270 -89
-10 -2 26 -16 80 -33 140 -41 210 -40 298 3 98 49 136 100 187 259 23 69 40
126 38 127 -2 0 -34 -30 -73 -69z"/>
</g>
</svg>
